<svg xmlns="http://www.w3.org/2000/svg" viewBox="0 0 640 760" role="img" aria-label="Doctor portrait illustration">
  <defs>
    <linearGradient id="bg" x1="0" y1="0" x2="1" y2="1">
      <stop offset="0%" stop-color="#ffedd5"/>
      <stop offset="100%" stop-color="#fde68a"/>
    </linearGradient>
  </defs>
  <rect width="640" height="760" rx="44" fill="url(#bg)"/>
  <circle cx="518" cy="122" r="96" fill="#ffffff" opacity=".38"/>
  <circle cx="122" cy="648" r="120" fill="#fdba74" opacity=".28"/>
  <rect x="110" y="92" width="420" height="576" rx="34" fill="#ffffff" opacity=".54"/>
  <ellipse cx="320" cy="650" rx="166" ry="42" fill="#94a3b8" opacity=".14"/>
  <path d="M220 308c0-66 42-110 100-110 58 0 100 48 100 118v28H220z" fill="#292524"/>
  <ellipse cx="320" cy="346" rx="98" ry="116" fill="#c98e63"/>
  <path d="M226 320c18-64 54-118 108-118 58 0 114 56 114 126v16c-26-30-62-48-112-48-38 0-78 8-110 24z" fill="#1c1917"/>
  <circle cx="286" cy="344" r="8" fill="#2b1b13"/>
  <circle cx="354" cy="344" r="8" fill="#2b1b13"/>
  <path d="M294 392c18 12 38 12 52 0" stroke="#9a3412" stroke-width="6" fill="none" stroke-linecap="round"/>
  <path d="M232 516c16-72 54-104 88-104s72 32 88 104v124H232z" fill="#fff7ed"/>
  <path d="M214 690V560c0-68 48-122 106-122s106 54 106 122v130z" fill="#ffffff"/>
  <path d="M300 442h40l20 86h-80z" fill="#b45309"/>
  <path d="M240 520c24-10 54-20 80-20 34 0 64 10 86 20" stroke="#fed7aa" stroke-width="16" fill="none" stroke-linecap="round"/>
</svg>
