<svg xmlns="http://www.w3.org/2000/svg" viewBox="0 0 640 760" role="img" aria-label="Doctor portrait illustration">
  <defs>
    <linearGradient id="bg" x1="0" y1="0" x2="1" y2="1">
      <stop offset="0%" stop-color="#ede9fe"/>
      <stop offset="100%" stop-color="#dbeafe"/>
    </linearGradient>
  </defs>
  <rect width="640" height="760" rx="44" fill="url(#bg)"/>
  <circle cx="120" cy="120" r="94" fill="#ffffff" opacity=".42"/>
  <circle cx="512" cy="646" r="126" fill="#c4b5fd" opacity=".34"/>
  <rect x="108" y="96" width="424" height="570" rx="34" fill="#ffffff" opacity=".54"/>
  <ellipse cx="320" cy="650" rx="164" ry="42" fill="#94a3b8" opacity=".14"/>
  <path d="M232 300c0-64 40-108 88-108 56 0 100 54 100 120v26H232z" fill="#1f2937"/>
  <ellipse cx="320" cy="344" rx="96" ry="114" fill="#d39a73"/>
  <path d="M226 316c16-66 52-114 106-114 56 0 108 48 108 118v12c-30-28-64-40-108-40-44 0-74 8-106 24z" fill="#0f172a"/>
  <circle cx="286" cy="342" r="8" fill="#2b1b13"/>
  <circle cx="354" cy="342" r="8" fill="#2b1b13"/>
  <path d="M294 388c14 10 38 10 52 0" stroke="#7c2d12" stroke-width="6" fill="none" stroke-linecap="round"/>
  <path d="M228 514c12-70 54-104 92-104 28 0 70 34 92 104v124H228z" fill="#f8fafc"/>
  <path d="M210 688V558c0-66 50-120 110-120s110 54 110 120v130z" fill="#ffffff"/>
  <path d="M296 438h48l-10 70h-28z" fill="#7c3aed"/>
  <path d="M256 542c18 16 38 24 64 24 26 0 46-8 64-24" stroke="#cbd5e1" stroke-width="10" fill="none" stroke-linecap="round"/>
  <rect x="258" y="260" width="124" height="24" rx="12" fill="#111827"/>
</svg>
